<?xml version="1.0" encoding="utf-8"?><svg viewBox="0 0 734 678" xmlns="http://www.w3.org/2000/svg" xmlns:xlink="http://www.w3.org/1999/xlink"><style>:root>svg{display:none}:root>svg:target{display:block}</style><svg fill="none" viewBox="0 0 734 678" id="background--brown" xmlns="http://www.w3.org/2000/svg"><g opacity=".3" filter="url(#aa)"><path fill-rule="evenodd" clip-rule="evenodd" d="M591.209 352.001c-11.036 34.668-36.295 61.189-59.172 89.461-19.711 24.359-40.717 46.073-65.745 64.911-27.878 20.983-54.17 50.185-89.019 51.573-34.962 1.393-64.322-24.539-93.206-44.312-27.156-18.59-46.492-44.207-69.901-67.348-32.04-31.674-87.333-49.644-93.6-94.285-6.059-43.156 37.923-76.651 64.787-110.94 23.809-30.39 50.385-57.306 83.085-77.799 33.577-21.043 69.644-48.243 108.835-42.477 39.128 5.755 55.765 55.714 91.815 71.994 42.028 18.979 104.667-7.199 132.748 29.413 26.867 35.03 2.768 87.727-10.627 129.809z" fill="#CE401C"/></g><defs><filter id="aa" x="0" y="0" width="734" height="678" filterUnits="userSpaceOnUse" color-interpolation-filters="sRGB"><feFlood flood-opacity="0" result="BackgroundImageFix"/><feBlend in="SourceGraphic" in2="BackgroundImageFix" result="shape"/><feGaussianBlur stdDeviation="60" result="effect1_foregroundBlur_4_11"/></filter></defs></svg><svg fill="none" viewBox="0 0 734 678" id="background--pink" xmlns="http://www.w3.org/2000/svg"><g opacity=".3" filter="url(#ba)"><path fill-rule="evenodd" clip-rule="evenodd" d="M591.209 352.001c-11.036 34.668-36.295 61.189-59.172 89.461-19.711 24.359-40.717 46.073-65.745 64.911-27.878 20.983-54.17 50.185-89.019 51.573-34.961 1.393-64.322-24.539-93.205-44.312-27.157-18.59-46.493-44.207-69.902-67.348-32.04-31.674-87.333-49.644-93.6-94.285-6.059-43.156 37.923-76.651 64.787-110.94 23.81-30.39 50.385-57.306 83.085-77.799 33.577-21.043 69.644-48.243 108.835-42.477 39.128 5.755 55.765 55.714 91.815 71.994 42.028 18.979 104.667-7.199 132.748 29.413 26.867 35.03 2.768 87.727-10.627 129.809z" fill="#FF042F"/></g><defs><filter id="ba" x="0" y="0" width="734" height="678" filterUnits="userSpaceOnUse" color-interpolation-filters="sRGB"><feFlood flood-opacity="0" result="BackgroundImageFix"/><feBlend in="SourceGraphic" in2="BackgroundImageFix" result="shape"/><feGaussianBlur stdDeviation="60" result="effect1_foregroundBlur_4_18"/></filter></defs></svg><svg fill="none" viewBox="0 0 734 678" id="background--red" xmlns="http://www.w3.org/2000/svg"><g opacity=".3" filter="url(#ca)"><path fill-rule="evenodd" clip-rule="evenodd" d="M591.209 352.001c-11.036 34.668-36.295 61.189-59.172 89.461-19.711 24.359-40.717 46.073-65.745 64.911-27.878 20.983-54.17 50.185-89.019 51.573-34.961 1.393-64.322-24.539-93.206-44.312-27.156-18.59-46.492-44.207-69.901-67.348-32.04-31.674-87.333-49.644-93.6-94.285-6.059-43.156 37.923-76.651 64.787-110.94 23.809-30.39 50.385-57.306 83.085-77.799 33.577-21.043 69.644-48.243 108.835-42.477 39.128 5.755 55.765 55.714 91.815 71.994 42.028 18.979 104.667-7.199 132.748 29.413 26.867 35.03 2.768 87.727-10.627 129.809z" fill="#FF3400"/></g><defs><filter id="ca" x="0" y="0" width="734" height="678" filterUnits="userSpaceOnUse" color-interpolation-filters="sRGB"><feFlood flood-opacity="0" result="BackgroundImageFix"/><feBlend in="SourceGraphic" in2="BackgroundImageFix" result="shape"/><feGaussianBlur stdDeviation="60" result="effect1_foregroundBlur_4_17"/></filter></defs></svg><svg fill="none" viewBox="0 0 734 678" id="background--violet" xmlns="http://www.w3.org/2000/svg"><g opacity=".3" filter="url(#da)"><path fill-rule="evenodd" clip-rule="evenodd" d="M591.209 352.001c-11.036 34.668-36.295 61.189-59.172 89.461-19.711 24.359-40.717 46.073-65.745 64.911-27.878 20.983-54.17 50.185-89.019 51.573-34.962 1.393-64.322-24.539-93.206-44.312-27.156-18.59-46.492-44.207-69.901-67.348-32.04-31.674-87.333-49.644-93.6-94.285-6.059-43.156 37.923-76.651 64.787-110.94 23.809-30.39 50.385-57.306 83.085-77.799 33.577-21.043 69.644-48.243 108.835-42.477 39.128 5.755 55.765 55.714 91.815 71.994 42.028 18.979 104.667-7.199 132.748 29.413 26.867 35.03 2.768 87.727-10.627 129.809z" fill="#96273A"/></g><defs><filter id="da" x="0" y="0" width="734" height="678" filterUnits="userSpaceOnUse" color-interpolation-filters="sRGB"><feFlood flood-opacity="0" result="BackgroundImageFix"/><feBlend in="SourceGraphic" in2="BackgroundImageFix" result="shape"/><feGaussianBlur stdDeviation="60" result="effect1_foregroundBlur_4_13"/></filter></defs></svg><svg fill="none" viewBox="0 0 24 24" id="icons--apartment" xmlns="http://www.w3.org/2000/svg"><path d="M17 11V5c0-1.1-.9-2-2-2H9c-1.1 0-2 .9-2 2v2H5c-1.1 0-2 .9-2 2v10c0 1.1.9 2 2 2h6v-4h2v4h6c1.1 0 2-.9 2-2v-6c0-1.1-.9-2-2-2h-2zM7 19H5v-2h2v2zm0-4H5v-2h2v2zm0-4H5V9h2v2zm4 4H9v-2h2v2zm0-4H9V9h2v2zm0-4H9V5h2v2zm4 8h-2v-2h2v2zm0-4h-2V9h2v2zm0-4h-2V5h2v2zm4 12h-2v-2h2v2zm0-4h-2v-2h2v2z" fill="#888B97"/></svg><svg fill="none" viewBox="0 0 24 24" id="icons--arrow" xmlns="http://www.w3.org/2000/svg"><path d="M9.993 5.002a.988.988 0 0 0-.879.532 1.002 1.002 0 0 0 .116 1.104l4.442 5.348-4.284 5.358a1 1 0 0 0 .15 1.407.99.99 0 0 0 1.142.12.993.993 0 0 0 .305-.27l4.79-5.986a1.001 1.001 0 0 0 0-1.267l-4.96-5.988A.993.993 0 0 0 9.992 5z" fill="#fff"/></svg><svg fill="none" viewBox="0 0 16 16" id="icons--badge-best" xmlns="http://www.w3.org/2000/svg"><path d="M12.8 4.8h-10v-.4l8.8-.704V4.4h1.2V3.2c0-.88-.713-1.498-1.583-1.374L3.184 2.974C2.313 3.098 1.6 3.92 1.6 4.8v8a1.6 1.6 0 0 0 1.6 1.6h9.6a1.6 1.6 0 0 0 1.6-1.6V6.4a1.6 1.6 0 0 0-1.6-1.6zm-1.2 5.605a1.203 1.203 0 0 1-1.2-1.201 1.199 1.199 0 0 1 2.05-.848 1.2 1.2 0 0 1-.85 2.049z" fill="#047857"/></svg><svg fill="none" viewBox="0 0 16 16" id="icons--badge-new" xmlns="http://www.w3.org/2000/svg"><path d="M14 7.221V13a1.005 1.005 0 0 1-.528.884.961.961 0 0 1-.47.116H9.997a.5.5 0 0 1-.5-.5v-3a.5.5 0 0 0-.5-.5h-2a.5.5 0 0 0-.5.5v3a.5.5 0 0 1-.5.5H3a.993.993 0 0 1-.75-.338 1.03 1.03 0 0 1-.25-.685V7.221a1.002 1.002 0 0 1 .327-.74l5-4.546a.996.996 0 0 1 1.345 0l5 4.546a1.004 1.004 0 0 1 .328.74z" fill="#1D4ED8"/></svg><svg fill="none" viewBox="0 0 16 16" id="icons--badge-popular" xmlns="http://www.w3.org/2000/svg"><path d="M13.033 7.331a5.43 5.43 0 0 0-1.295-1.8l-.455-.417a.126.126 0 0 0-.203.052l-.203.582c-.127.366-.36.74-.69 1.107a.098.098 0 0 1-.064.03.086.086 0 0 1-.067-.023.092.092 0 0 1-.031-.075c.058-.94-.223-2.001-.84-3.156-.508-.96-1.216-1.708-2.1-2.23l-.646-.38a.125.125 0 0 0-.187.115l.034.75c.023.512-.036.966-.177 1.342-.171.461-.418.89-.734 1.273a4.62 4.62 0 0 1-.742.72 5.51 5.51 0 0 0-1.567 1.9 5.434 5.434 0 0 0-.133 4.535 5.49 5.49 0 0 0 2.928 2.9A5.497 5.497 0 0 0 8 14.984c.742 0 1.46-.143 2.14-.426a5.447 5.447 0 0 0 1.747-1.167A5.408 5.408 0 0 0 13.5 9.533c0-.763-.156-1.503-.467-2.202z" fill="#EF4444"/></svg><svg fill="none" viewBox="0 0 24 24" id="icons--email" xmlns="http://www.w3.org/2000/svg"><path d="M19 4H5a3 3 0 0 0-3 3v10a3 3 0 0 0 3 3h14a3 3 0 0 0 3-3V7a3 3 0 0 0-3-3zm0 2-6.5 4.47a1 1 0 0 1-1 0L5 6h14z" fill="#CE401C"/></svg><svg fill="none" viewBox="0 0 24 24" id="icons--house" xmlns="http://www.w3.org/2000/svg"><path d="M21 10.832V19.5a1.508 1.508 0 0 1-.792 1.326c-.216.117-.46.177-.706.174h-4.505a.75.75 0 0 1-.75-.75v-4.5a.75.75 0 0 0-.75-.75h-3a.75.75 0 0 0-.75.75v4.5a.75.75 0 0 1-.75.75H4.5a1.49 1.49 0 0 1-1.124-.507A1.544 1.544 0 0 1 3 19.466v-8.634a1.503 1.503 0 0 1 .491-1.11l7.5-6.819a1.494 1.494 0 0 1 2.018 0l7.5 6.819a1.504 1.504 0 0 1 .491 1.11z" fill="#888B97"/></svg><svg fill="none" viewBox="0 0 24 24" id="icons--point" xmlns="http://www.w3.org/2000/svg"><path d="M12 1c2.387 0 4.676.993 6.364 2.762C20.052 5.53 21 7.928 21 10.429c0 4.505-2.902 8.652-8.598 12.449a.726.726 0 0 1-.804 0C5.902 19.08 3 14.934 3 10.428c0-2.5.948-4.898 2.636-6.666C7.324 1.993 9.613 1 12 1zm0 6.286c-.796 0-1.559.33-2.121.92A3.22 3.22 0 0 0 9 10.43c0 .833.316 1.633.879 2.222.562.59 1.325.92 2.121.92s1.559-.33 2.121-.92A3.22 3.22 0 0 0 15 10.429a3.22 3.22 0 0 0-.879-2.223A2.933 2.933 0 0 0 12 7.286z" fill="#F59E0B"/></svg><svg fill="none" viewBox="0 0 48 48" id="icons--video" xmlns="http://www.w3.org/2000/svg"><g clip-path="url(#ma)"><path d="m33 24.5-14.5-11H18v21l15-10z" fill="#fff"/><g filter="url(#mb)"><path d="M48 24a24 24 0 1 1-48 0 24 24 0 0 1 48 0zm-27.63-8.721A1.5 1.5 0 0 0 18 16.5v15a1.5 1.5 0 0 0 2.37 1.221l10.5-7.5a1.501 1.501 0 0 0 0-2.442l-10.5-7.5z" fill="#fff" fill-opacity=".5"/></g></g><defs><clipPath id="ma"><path fill="#fff" d="M0 0h48v48H0z"/></clipPath><filter id="mb" x="-5" y="-5" width="58" height="58" filterUnits="userSpaceOnUse" color-interpolation-filters="sRGB"><feFlood flood-opacity="0" result="BackgroundImageFix"/><feGaussianBlur in="BackgroundImageFix" stdDeviation="2.5"/><feComposite in2="SourceAlpha" operator="in" result="effect1_backgroundBlur_4_203"/><feBlend in="SourceGraphic" in2="effect1_backgroundBlur_4_203" result="shape"/></filter></defs></svg><svg fill="none" viewBox="0 0 24 24" id="icons--villa" xmlns="http://www.w3.org/2000/svg"><path d="M7 21H4c-.55 0-1-.45-1-1V8.69c0-.42.25-.79.64-.94l11-4.23a1 1 0 0 1 1.36.94V10H8c-.55 0-1 .45-1 1v10zm10-9h-7c-.55 0-1 .45-1 1v7c0 .55.45 1 1 1h4v-4c0-.55.45-1 1-1s1 .45 1 1v4h4c.55 0 1-.45 1-1v-8c0-1.1-.9-2-2-2s-2 .9-2 2z" fill="#888B97"/></svg></svg>